# xmcd
#
# Track frame offsets:
#	150
#	23292
#	47757
#	66905
#	87015
#	113432
#	137810
#	158120
#	182027
#	205615
#
# Disc length: 3061 seconds
#
# Revision: 0
# Processed by: cddbd v1.5.2PL0 Copyright (c) Steve Scherf et al.
# Submitted via: EZCDAudioConverter 8.0.2.1
#
DISCID=740bf30a
DTITLE=Thùy Dương, V.A - Một Mai Em Đi
DYEAR=1993
DGENRE=World Pop
TTITLE0=Thùy Dương - Một Mai Em Đi
TTITLE1=Vũ Khanh - Trường Sa
TTITLE2=Ý Lan - Một nửa đời em
TTITLE3=Tuấn Ngọc - Nỗi lòng người đi
TTITLE4=Thùy Dương - Bài không tên số 7
TTITLE5=Thùy Dương - Yêu
TTITLE6=Julie - Mùa thu chết
TTITLE7=Ý Lan - Điệp khúc buồn
TTITLE8=Khánh Ly - Hạ trắng
TTITLE9=Thùy Dương - Bao giờ biết tương tư
EXTD=
EXTT0=
EXTT1=
EXTT2=
EXTT3=
EXTT4=
EXTT5=
EXTT6=
EXTT7=
EXTT8=
EXTT9=
PLAYORDER=
